<?xml version="1.0" encoding="utf-8"?><svg width="310" height="290" viewBox="0 0 310 290" fill="none" xmlns="http://www.w3.org/2000/svg">
<path fill-rule="evenodd" clip-rule="evenodd" d="M175 67.3808C148.701 67.3808 127.381 88.7006 127.381 115C127.381 141.299 148.701 162.619 175 162.619C201.299 162.619 222.619 141.299 222.619 115C222.619 88.7006 201.299 67.3808 175 67.3808ZM95.6349 115C95.6349 71.1677 131.168 35.6348 175 35.6348C218.832 35.6348 254.365 71.1677 254.365 115C254.365 158.832 218.832 194.365 175 194.365C131.168 194.365 95.6349 158.832 95.6349 115Z" fill="#EBF1F6"/>
<path fill-rule="evenodd" clip-rule="evenodd" d="M100.398 -42.8552C136.028 -59.6926 176.305 -63.9821 214.681 -55.0263C253.057 -46.0704 287.276 -24.3958 311.772 6.47308C336.268 37.342 349.601 75.5897 349.603 114.997V130.871C349.603 147.71 342.914 163.86 331.007 175.767C319.1 187.674 302.95 194.363 286.111 194.363C269.272 194.363 253.123 187.674 241.216 175.767C229.309 163.86 222.619 147.71 222.619 130.871V51.5061C222.619 42.7396 229.726 35.633 238.492 35.633C247.259 35.633 254.365 42.7396 254.365 51.5061V130.871C254.365 139.291 257.71 147.365 263.663 153.319C269.617 159.273 277.692 162.617 286.111 162.617C294.531 162.617 302.606 159.273 308.559 153.319C314.513 147.365 317.857 139.291 317.857 130.871V114.999C317.857 114.999 317.857 114.999 317.857 114.999C317.855 82.757 306.946 51.4628 286.904 26.2067C266.862 0.950344 238.865 -16.7834 207.466 -24.1109C176.068 -31.4385 143.113 -27.9289 113.962 -14.1528C84.811 -0.376694 61.1772 22.8556 46.9038 51.7666C32.6304 80.6776 28.5568 113.567 35.3454 145.086C42.134 176.606 59.3855 204.902 84.2948 225.374C109.204 245.846 140.306 257.29 172.544 257.844C204.782 258.398 236.259 248.031 261.857 228.428C268.817 223.098 278.78 224.419 284.11 231.379C289.44 238.339 288.119 248.302 281.159 253.632C249.872 277.592 211.4 290.263 171.998 289.586C132.597 288.908 94.5828 274.921 64.1381 249.9C33.6934 224.879 12.6082 190.295 4.31099 151.771C-3.98618 113.247 0.992662 73.0486 18.438 37.7129C35.8833 2.3773 64.769 -26.0178 100.398 -42.8552Z" fill="#EBF1F6"/>
</svg>
