<?xml version="1.0" encoding="utf-8"?><svg width="160" height="126" viewBox="0 0 160 126" fill="none" xmlns="http://www.w3.org/2000/svg">
<path d="M194.177 23.452C194.165 23.452 194.153 23.4505 194.141 23.4505H141.016V17.5878C141.016 7.8901 133.13 0 123.438 0H76.5625C66.8701 0 58.9844 7.8901 58.9844 17.5878V23.4505H5.85938C2.59705 23.4505 0 26.1253 0 29.3131V158.291C0 167.988 7.88574 175.878 17.5781 175.878H182.422C192.114 175.878 200 167.988 200 158.291V29.4367C200 29.4291 200 29.4215 200 29.4138C199.776 25.5634 197.409 23.4734 194.177 23.452ZM70.7031 17.5878C70.7031 14.3558 73.3322 11.7252 76.5625 11.7252H123.438C126.668 11.7252 129.297 14.3558 129.297 17.5878V23.4505H70.7031V17.5878ZM186.011 35.1757L167.815 89.7926C167.017 92.1911 164.783 93.8018 162.257 93.8018H129.297V87.9392C129.297 84.701 126.674 82.0766 123.438 82.0766H76.5625C73.3261 82.0766 70.7031 84.701 70.7031 87.9392V93.8018H37.7426C35.2173 93.8018 32.9834 92.1911 32.1854 89.7926L13.9893 35.1757H186.011ZM117.578 93.8018V105.527H82.4219V93.8018H117.578ZM188.281 158.291C188.281 161.523 185.652 164.153 182.422 164.153H17.5781C14.3478 164.153 11.7188 161.523 11.7188 158.291V65.4399L21.0678 93.5011C23.4634 100.695 30.1651 105.527 37.7426 105.527H70.7031V111.39C70.7031 114.628 73.3261 117.252 76.5625 117.252H123.438C126.674 117.252 129.297 114.628 129.297 111.39V105.527H162.257C169.835 105.527 176.537 100.695 178.932 93.5011L188.281 65.4399V158.291Z" fill="#EBF1F6"/>
</svg>
