<?xml version="1.0" encoding="utf-8"?><svg width="100" height="100" viewBox="0 0 100 100" fill="none" xmlns="http://www.w3.org/2000/svg">
<g clip-path="url(#clip0)">
<path d="M94.872 5.86621H63.6937C60.863 5.86621 58.5656 8.16356 58.5656 10.9942V42.1726C58.5656 45.0033 60.863 47.3006 63.6937 47.3006H78.6162C78.4213 55.4645 76.524 61.9975 72.9343 66.9101C70.1037 70.7869 65.8168 73.997 60.0835 76.5303C57.4477 77.6892 56.3093 80.807 57.54 83.4122L61.2322 91.2067C62.4219 93.7091 65.3654 94.8066 67.9089 93.7091C74.6984 90.7759 80.4316 87.0632 85.1083 82.5506C90.8107 77.0431 94.7182 70.8279 96.8309 63.8948C98.9438 56.9618 100 47.5057 100 35.5061V10.9942C100 8.16366 97.7026 5.86621 94.872 5.86621Z" fill="#EBF1F6"/>
<path d="M10.8751 93.6886C17.5825 90.7656 23.2849 87.0531 27.9924 82.5506C33.746 77.0431 37.6741 70.8484 39.7868 63.9666C41.8996 57.0848 42.9558 47.598 42.9558 35.5061V10.9942C42.9558 8.16356 40.6586 5.86621 37.8278 5.86621H6.64949C3.81882 5.86621 1.52147 8.16356 1.52147 10.9942V42.1726C1.52147 45.0033 3.81882 47.3006 6.64949 47.3006H21.572C21.3772 55.4645 19.4798 61.9975 15.8902 66.9101C13.0595 70.7869 8.77249 73.997 3.03937 76.5303C0.403566 77.6892 -0.734854 80.807 0.49587 83.4122L4.17779 91.1862C5.36759 93.6886 8.33158 94.7964 10.8751 93.6886Z" fill="#EBF1F6"/>
</g>
<defs>
<clipPath id="clip0">
<rect width="100" height="100" fill="white"/>
</clipPath>
</defs>
</svg>
