<?xml version="1.0" encoding="utf-8"?><svg width="165" height="24" viewBox="0 0 165 24" fill="none" xmlns="http://www.w3.org/2000/svg">
<line x1="1" y1="17" x2="99" y2="17" stroke="white" stroke-width="2" stroke-linecap="round" stroke-linejoin="round"/>
<path d="M135.023 18H132.734L127.117 8.89844H127.055L127.094 9.40625C127.167 10.375 127.203 11.2604 127.203 12.0625V18H125.508V6.57812H127.773L133.375 15.6328H133.422C133.411 15.513 133.391 15.0781 133.359 14.3281C133.328 13.5729 133.312 12.9844 133.312 12.5625V6.57812H135.023V18ZM144.58 18H138.119V6.57812H144.58V8.15625H139.986V11.2656H144.291V12.8281H139.986V16.4141H144.58V18ZM155.551 18H153.402L150.543 13.3281L147.66 18H145.66L149.449 12.0781L145.902 6.57812H147.98L150.621 10.8984L153.262 6.57812H155.277L151.707 12.1094L155.551 18ZM161.115 18H159.248V8.17969H155.888V6.57812H164.474V8.17969H161.115V18Z" fill="white"/>
</svg>
