<?xml version="1.0" encoding="utf-8"?><svg width="162" height="24" viewBox="0 0 162 24" fill="none" xmlns="http://www.w3.org/2000/svg">
<line x1="63" y1="17" x2="161" y2="17" stroke="white" stroke-width="2" stroke-linecap="round" stroke-linejoin="round"/>
<path d="M9.07031 10.0312C9.07031 11.224 8.67969 12.138 7.89844 12.7734C7.11719 13.4089 6.00521 13.7266 4.5625 13.7266H3.375V18H1.50781V6.57812H4.79688C6.22396 6.57812 7.29167 6.86979 8 7.45312C8.71354 8.03646 9.07031 8.89583 9.07031 10.0312ZM3.375 12.1562H4.36719C5.32552 12.1562 6.02865 11.9896 6.47656 11.6562C6.92448 11.3229 7.14844 10.8021 7.14844 10.0938C7.14844 9.4375 6.94792 8.94792 6.54688 8.625C6.14583 8.30208 5.52083 8.14062 4.67188 8.14062H3.375V12.1562ZM13.2987 11.8906H14.5956C15.4654 11.8906 16.0956 11.7292 16.4862 11.4062C16.8769 11.0833 17.0722 10.6042 17.0722 9.96875C17.0722 9.32292 16.8612 8.85938 16.4394 8.57812C16.0175 8.29688 15.3821 8.15625 14.5331 8.15625H13.2987V11.8906ZM13.2987 13.4375V18H11.4316V6.57812H14.6581C16.1321 6.57812 17.2232 6.85417 17.9316 7.40625C18.6399 7.95833 18.9941 8.79167 18.9941 9.90625C18.9941 11.3281 18.2545 12.3411 16.7753 12.9453L20.0019 18H17.8769L15.1425 13.4375H13.2987ZM28.2069 18H21.7459V6.57812H28.2069V8.15625H23.6131V11.2656H27.9178V12.8281H23.6131V16.4141H28.2069V18ZM37.2712 6.57812H39.2087L35.2087 18H33.24L29.2556 6.57812H31.1775L33.5603 13.6797C33.6853 14.0182 33.8181 14.4557 33.9587 14.9922C34.0994 15.5234 34.1905 15.9193 34.2322 16.1797C34.2999 15.7839 34.4041 15.3255 34.5447 14.8047C34.6853 14.2839 34.7999 13.8984 34.8884 13.6484L37.2712 6.57812Z" fill="white"/>
</svg>
