<?xml version="1.0" encoding="utf-8"?><svg width="106" height="124" viewBox="0 0 106 124" fill="none" xmlns="http://www.w3.org/2000/svg">
<path fill-rule="evenodd" clip-rule="evenodd" d="M105.496 0.0559952C105.741 0.182861 105.837 0.484541 105.71 0.729815L105.19 1.73655L105.19 1.73664L105.19 1.73668C101.407 9.04636 97.657 16.294 94.442 23.8645C90.5594 33.0073 87.3055 42.4005 84.603 51.9602C84.2102 53.3497 83.2988 57.2012 82.5968 61.0631C82.8374 62.2404 83.0383 63.4383 83.1805 64.5713C83.3921 66.2554 83.479 67.8316 83.364 69.0021C83.3071 69.5817 83.1968 70.1074 82.9971 70.5032C82.7928 70.9081 82.4404 71.2661 81.9006 71.2661C81.5892 71.2661 81.3388 71.1186 81.1639 70.9065C81.0023 70.7106 80.9032 70.4606 80.8376 70.2088C80.7056 69.7026 80.667 69.0181 80.6842 68.2427C80.7189 66.6786 80.9866 64.5806 81.3478 62.4062C81.421 61.9656 81.4982 61.5208 81.5783 61.0756C81.1187 58.8712 80.5234 56.7744 79.9316 55.3849C79.8961 55.3015 79.86 55.2133 79.8226 55.1221L79.8222 55.121L79.8221 55.1208L79.822 55.1207C79.6885 54.7946 79.5388 54.4291 79.3426 54.101C79.0785 53.6594 78.8416 53.4815 78.6465 53.4661C77.8299 53.4016 76.6613 53.93 75.3981 55.1489C74.1578 56.3457 72.9087 58.1331 71.9374 60.3827C71.5083 61.3763 71.1074 62.6561 70.7637 64.0475C70.9914 65.6561 71.2035 67.5104 71.3215 69.2405C71.4305 70.8401 71.461 72.3609 71.3413 73.4906C71.282 74.0496 71.1821 74.555 71.0126 74.9335C70.8497 75.2974 70.5379 75.7102 69.9967 75.6992C69.48 75.6888 69.1706 75.3066 69.002 74.9421C68.83 74.5705 68.731 74.0788 68.6769 73.534C68.5676 72.4335 68.6273 70.9495 68.8046 69.3485C68.9946 67.6324 69.3242 65.7444 69.7464 63.9978C69.5636 62.7288 69.3733 61.6327 69.218 60.9079C69.1708 60.6875 69.086 60.3909 68.9632 60.1362C68.8294 59.8586 68.7031 59.7404 68.6308 59.7115C67.9509 59.4395 67.2601 59.5349 66.5562 59.9151C65.8406 60.3017 65.1393 60.9713 64.5038 61.785C63.6715 62.8508 62.9996 64.1014 62.5804 65.1367C62.7898 65.866 62.9611 66.6694 63.0988 67.5036C63.3609 69.0913 63.507 70.826 63.5527 72.4424C63.5984 74.057 63.5444 75.5687 63.4011 76.7092C63.3298 77.2765 63.234 77.7727 63.1087 78.1497C63.0464 78.3372 62.9699 78.5167 62.8718 78.6656C62.7789 78.8067 62.6267 78.981 62.3907 79.0521C62.1578 79.1224 61.9318 79.0721 61.7532 78.9485C61.5957 78.8396 61.4887 78.6849 61.4141 78.5464C61.2636 78.2671 61.1546 77.8812 61.0704 77.456C60.8989 76.5905 60.7974 75.3855 60.7543 74.0746C60.6682 71.4523 60.8132 68.2981 61.1542 66.3767C61.218 66.0173 61.3443 65.5788 61.5239 65.0953C61.3752 64.622 61.2107 64.1986 61.0306 63.8385L60.9892 63.7555C60.8175 63.4104 60.6412 63.0564 60.4177 62.8401C60.3084 62.7343 60.228 62.7033 60.1716 62.6981C60.1212 62.6936 60.0079 62.7017 59.8124 62.8505C59.3313 63.2167 58.3376 64.2195 57.3185 65.4973C56.3021 66.7719 55.3045 68.2655 54.7828 69.5987C54.6161 70.0247 54.4631 70.5438 54.3243 71.1343C54.3425 71.286 54.3596 71.4361 54.3756 71.5841C54.5061 72.7861 54.5719 73.8776 54.6051 74.6685C54.6217 75.0642 54.6302 75.3852 54.6346 75.6079C54.6367 75.7192 54.6379 75.8061 54.6385 75.8653L54.639 75.9333L54.6391 75.9453L54.64 75.9641L54.6441 76.0514C54.646 76.092 54.6483 76.1425 54.6509 76.2023C54.6533 76.2551 54.6559 76.315 54.6587 76.3817C54.6707 76.666 54.6866 77.0721 54.7023 77.5601C54.7336 78.5356 54.7639 79.8406 54.7598 81.1548C54.7557 82.4654 54.7173 83.7999 54.6087 84.8285C54.5547 85.3394 54.4811 85.7989 54.3771 86.1489C54.3256 86.3223 54.2591 86.4951 54.1675 86.6396C54.0811 86.7759 53.9243 86.9615 53.6665 87.0188C53.3061 87.0989 53.0649 86.8649 52.9593 86.716C52.8512 86.5638 52.7788 86.3697 52.725 86.1824C52.6141 85.7958 52.5333 85.2537 52.4756 84.6193C52.3593 83.3403 52.3284 81.5813 52.3853 79.6887C52.4423 77.7941 52.5876 75.7518 52.8271 73.9042C52.9579 72.8954 53.118 71.9339 53.3104 71.0813C53.0343 68.8629 52.5351 66.4658 51.6558 64.9748C51.5632 64.8177 51.4649 64.7076 51.3741 64.6472C51.2967 64.5959 51.2267 64.5795 51.1359 64.5997C50.9148 64.6488 50.6412 64.7893 50.3256 65.0239C50.0153 65.2545 49.6948 65.5531 49.3809 65.8801C49.2527 66.0136 49.1277 66.1496 49.0068 66.2853C49.3546 67.5347 49.6364 68.8131 49.826 70.1426C50.3447 73.7811 50.5995 77.3721 50.5995 81.0384C50.5995 83.5236 49.7532 85.3317 48.5719 86.6432C47.401 87.9432 45.9225 88.7324 44.6823 89.2343C43.379 89.7617 41.5943 89.9108 40.0449 89.3222C38.4564 88.7187 37.156 87.3519 36.8842 84.9659C36.5942 82.4201 37.7553 80.3984 38.8753 78.4482L38.8757 78.4475C38.9673 78.288 39.0586 78.129 39.1488 77.9703C41.394 74.0193 46.344 67.9123 47.054 67.0621C47.1311 66.9697 47.2217 66.8584 47.3235 66.7333L47.3236 66.7332C47.4885 66.5305 47.6827 66.2919 47.8963 66.0397C47.3375 64.1437 46.625 62.293 45.85 60.392C44.8213 57.8687 43.9522 55.1422 43.3861 52.3625C41.6611 54.9551 40.0473 57.125 39.3229 58.099L39.3216 58.1008L39.3193 58.1038C39.1957 58.27 39.0983 58.401 39.0309 58.493C38.8677 58.7157 38.5549 58.7641 38.3321 58.6009C38.1093 58.4377 38.061 58.1249 38.2242 57.9021C38.2945 57.8061 38.3953 57.6705 38.5226 57.4993L38.5226 57.4992L38.5227 57.4991C39.3333 56.4089 41.2164 53.8761 43.1244 50.9411C42.8325 49.1646 42.6729 47.377 42.6826 45.6168C42.6865 44.9044 42.75 42.7054 43.0818 40.6741C43.2469 39.6631 43.4839 38.6578 43.8312 37.8929C44.1553 37.179 44.6803 36.4537 45.5216 36.4408C46.8191 36.3338 47.8259 36.5552 48.4987 37.1563C49.1824 37.7671 49.4063 38.6658 49.3701 39.6413C49.2987 41.5654 48.2058 44.152 46.812 46.7346C46.0114 48.2181 45.0944 49.7303 44.1754 51.1572C44.7098 54.2063 45.6402 57.2284 46.776 60.0145C47.4755 61.7302 48.134 63.4276 48.6771 65.1692C49.007 64.8269 49.3641 64.4926 49.729 64.2214C50.0949 63.9493 50.5007 63.7165 50.919 63.6235C51.7334 63.4425 52.2608 64.032 52.5172 64.4668C53.2124 65.6457 53.6754 67.2689 53.9858 68.9093C54.5834 67.5332 55.5722 66.0832 56.5367 64.8738C57.5748 63.5721 58.6287 62.4947 59.2068 62.0548C59.5408 61.8006 59.8965 61.6689 60.2623 61.7023C60.622 61.735 60.9047 61.9197 61.1133 62.1216C61.4697 62.4666 61.7231 62.9815 61.8787 63.2975L61.8787 63.2976L61.8787 63.2976C61.8953 63.3312 61.9107 63.3626 61.925 63.3912C61.9853 63.5119 62.0437 63.6377 62.1002 63.7684C62.5314 62.8949 63.0831 61.9795 63.7156 61.1696C64.396 60.2984 65.1974 59.5126 66.0809 59.0353C66.9762 58.5517 67.9809 58.3745 69.0022 58.783C69.4392 58.9578 69.706 59.3743 69.864 59.702C70.033 60.0527 70.1388 60.4322 70.1958 60.6983C70.2561 60.9798 70.3213 61.3139 70.389 61.69C70.5887 61.0692 70.7998 60.4946 71.0193 59.9863C72.0349 57.634 73.3545 55.7312 74.7037 54.4293C76.0301 53.1494 77.4717 52.3702 78.7252 52.4692C79.4479 52.5262 79.9156 53.1109 80.2008 53.5877C80.4405 53.9885 80.6291 54.4505 80.7634 54.7796L80.7636 54.7801C80.7962 54.8598 80.8255 54.9317 80.8516 54.993C81.2652 55.964 81.6743 57.2432 82.0401 58.6533C82.6549 55.5891 83.3158 52.8378 83.6407 51.6882C86.3537 42.0914 89.6212 32.6581 93.5216 23.4736C96.7518 15.8671 100.518 8.58876 104.296 1.2876L104.296 1.28751L104.296 1.28738L104.822 0.270393C104.949 0.025118 105.251 -0.0708709 105.496 0.0559952ZM43.9451 49.6544C44.6418 48.5398 45.3215 47.3909 45.932 46.2597C47.3272 43.6745 48.3089 41.272 48.3708 39.6043C48.4012 38.7839 48.2063 38.236 47.8325 37.902C47.4511 37.5612 46.7682 37.3387 45.5867 37.4388C45.5727 37.44 45.5586 37.4406 45.5445 37.4406C45.3443 37.4406 45.0541 37.6183 44.7417 38.3063C44.4496 38.9499 44.2294 39.8516 44.0687 40.8353C43.7489 42.7931 43.6864 44.9336 43.6826 45.6223C43.6753 46.9528 43.7683 48.3029 43.9451 49.6544ZM48.2206 67.2157L48.1177 67.342C48.0096 67.4749 47.9103 67.5967 47.8215 67.7031C47.1069 68.5588 42.2131 74.6019 40.0182 78.4643C39.9351 78.6106 39.8523 78.7553 39.7703 78.8987C38.6228 80.9048 37.6264 82.6465 37.8778 84.8527C38.107 86.8646 39.1591 87.9159 40.4001 88.3874C41.6801 88.8737 43.2018 88.7546 44.3072 88.3073C45.4757 87.8344 46.7996 87.1167 47.8289 85.9739C48.8479 84.8426 49.5995 83.2718 49.5995 81.0384C49.5995 77.4194 49.3481 73.8756 48.836 70.2837C48.6864 69.2343 48.4769 68.2162 48.2206 67.2157ZM53.6356 75.6709C53.5076 77.0104 53.4245 78.3997 53.3849 79.7188C53.3287 81.589 53.3601 83.3044 53.4715 84.5287C53.495 84.7875 53.5217 85.0198 53.5511 85.2241C53.574 85.0722 53.595 84.9049 53.6142 84.7235C53.7173 83.747 53.7557 82.4536 53.7598 81.1517C53.7639 79.8533 53.7339 78.561 53.7028 77.5922C53.6872 77.1081 53.6715 76.7054 53.6596 76.4239C53.6536 76.2832 53.6486 76.1728 53.6452 76.0977L53.6411 76.0122L53.6401 75.9905L53.6398 75.9851L53.6397 75.9838L53.6397 75.9835C53.6393 75.9754 53.6391 75.9673 53.6391 75.9591V75.9583L53.6391 75.9546L53.639 75.9389L53.6385 75.8753C53.638 75.8268 53.6372 75.7581 53.6356 75.6709ZM53.3143 86.1163C53.3143 86.1162 53.3154 86.1148 53.3174 86.1124L53.3159 86.1146C53.3153 86.1153 53.3149 86.1158 53.3147 86.116C53.3145 86.1163 53.3143 86.1164 53.3143 86.1163ZM62.0349 67.2227C61.7842 69.0746 61.6786 71.7522 61.7538 74.0418C61.7962 75.3342 61.8956 76.4758 62.0513 77.2617C62.0924 77.4691 62.1354 77.6404 62.178 77.7774C62.2661 77.4925 62.3454 77.09 62.4089 76.5846C62.5439 75.5103 62.5979 74.0526 62.5531 72.4707C62.5084 70.8906 62.3656 69.2018 62.1121 67.6665C62.0874 67.5167 62.0617 67.3687 62.0349 67.2227ZM62.0177 78.1408C62.0177 78.1407 62.0186 78.1396 62.0205 78.1378C62.0187 78.1399 62.0178 78.1408 62.0177 78.1408ZM70.1315 67.0996C69.9957 67.8989 69.8831 68.6948 69.7985 69.4586C69.6243 71.0314 69.5727 72.4359 69.672 73.4352C69.7221 73.9402 69.8073 74.3013 69.9095 74.5222C69.9521 74.6141 69.9863 74.6609 70.0086 74.6839C70.0296 74.6592 70.0609 74.612 70.0999 74.5249C70.2043 74.2918 70.291 73.9118 70.3468 73.3852C70.4572 72.3439 70.4318 70.8929 70.3238 69.3085C70.2745 68.5849 70.2084 67.8392 70.1315 67.0996ZM69.9795 74.7087C69.9792 74.7079 69.9826 74.705 69.9902 74.7026C69.9884 74.7042 69.9867 74.7054 69.9853 74.7063C69.9846 74.7068 69.9839 74.7072 69.9833 74.7076C69.9809 74.7089 69.9796 74.7091 69.9795 74.7087ZM70.0278 74.7005C70.0345 74.7018 70.0375 74.7039 70.0373 74.7045C70.0371 74.7052 70.0338 74.7045 70.0278 74.7005ZM82.102 64.0513C81.8673 65.6512 81.7094 67.1204 81.684 68.2649C81.6673 69.0168 81.7093 69.5884 81.8052 69.9566C81.8504 70.13 81.8985 70.2214 81.9292 70.2624C81.9637 70.2516 82.0249 70.21 82.1043 70.0527C82.2212 69.8208 82.3162 69.4401 82.3688 68.9043C82.473 67.844 82.3966 66.354 82.1883 64.6959C82.1616 64.483 82.1328 64.2679 82.102 64.0513ZM29.8755 36.743C29.2447 36.189 28.6005 35.8366 27.9404 35.7397C27.2663 35.6408 26.6334 35.8168 26.0576 36.2118C24.9482 36.9728 24.0151 38.5704 23.1767 40.7427C21.4847 45.1271 20.0206 52.298 18.5268 61.3969C18.0332 64.4034 17.3452 67.5377 16.5178 70.7716C11.5037 75.9762 5.79551 80.5993 0.18548 85.1392C-0.0291784 85.3129 -0.06237 85.6278 0.111344 85.8424C0.285058 86.0571 0.599896 86.0903 0.814554 85.9166L0.830774 85.9035L0.830821 85.9034C5.97126 81.7435 11.2465 77.4744 16.0064 72.7189C14.4085 78.6558 12.388 84.9019 10.2733 91.2884C9.91503 92.3704 9.55408 93.4563 9.19209 94.5454L9.18473 94.5676L9.1796 94.583L9.17794 94.588L9.17791 94.5881C6.00011 104.148 2.74378 113.945 0.519498 123.372C0.456082 123.641 0.622548 123.91 0.89131 123.973C1.16007 124.037 1.42936 123.87 1.49277 123.601C3.70608 114.221 6.94756 104.469 10.1275 94.9016L10.1276 94.9013L10.1276 94.9013C10.494 93.799 10.8595 92.6992 11.2226 91.6027C13.5367 84.6141 15.7506 77.7576 17.4211 71.2743C20.8409 67.7024 23.9468 63.8469 26.4801 59.5578C28.141 56.7457 30.2101 52.1847 31.2745 47.7925C31.8066 45.5969 32.0945 43.416 31.94 41.5035C31.7855 39.5925 31.1832 37.8915 29.8755 36.743ZM25.6191 59.0492C23.4334 62.7499 20.812 66.1255 17.9202 69.28C18.5625 66.6326 19.1041 64.0533 19.5136 61.559C21.0096 52.447 22.4604 45.3763 24.1097 41.1028C24.942 38.9461 25.7861 37.6107 26.6233 37.0364C27.0207 36.7638 27.4035 36.6716 27.7951 36.7291C28.2007 36.7887 28.6725 37.0174 29.2156 37.4944C30.2558 38.4079 30.8004 39.8166 30.9432 41.5841C31.0859 43.3501 30.8215 45.4162 30.3027 47.557C29.2653 51.8377 27.2386 56.3072 25.6191 59.0492ZM22.8309 81.3021C22.913 81.0385 22.7659 80.7582 22.5022 80.676C22.2386 80.5939 21.9583 80.7411 21.8761 81.0047C21.3665 82.6407 20.7209 84.1473 20.0407 85.7344L19.8572 86.1629C19.7486 86.4168 19.8664 86.7106 20.1203 86.8192C20.3742 86.9278 20.668 86.81 20.7766 86.5561L20.9626 86.1219L20.9626 86.1218C21.6395 84.5426 22.3052 82.9897 22.8309 81.3021ZM97.828 49.689C97.8807 49.4179 97.7038 49.1554 97.4327 49.1027C97.1616 49.05 96.8991 49.2269 96.8464 49.498C96.4838 51.3618 96.092 53.232 95.6991 55.1072C94.9637 58.6178 94.2245 62.1461 93.666 65.6832C92.4906 73.1274 93.1936 80.6754 93.8835 88.084L93.8837 88.0865C94.0109 89.4523 94.1377 90.8134 94.2522 92.1682C94.2592 92.2518 94.2687 92.3606 94.2802 92.4915C94.2872 92.5705 94.2949 92.6576 94.3032 92.7521V92.7522C94.3829 93.6535 94.5217 95.2233 94.6407 96.846C94.7941 98.9395 94.9088 101.053 94.8333 101.944C94.6939 103.585 94.0616 104.697 93.1215 105.557C92.1601 106.437 90.8615 107.07 89.3552 107.701C85.0953 109.488 80.7813 110.629 76.2638 111.803C70.7659 113.231 65.2231 114.427 59.6667 115.627L59.6664 115.627C57.6798 116.056 55.6916 116.485 53.703 116.925C53.4334 116.985 53.2632 117.252 53.3229 117.521C53.3826 117.791 53.6495 117.961 53.9192 117.901C55.8946 117.464 57.8743 117.037 59.8552 116.609L59.8597 116.608C65.4224 115.408 70.9954 114.205 76.5153 112.77C81.0261 111.598 85.4068 110.442 89.742 108.624C91.2536 107.99 92.6962 107.302 93.7967 106.295C94.9185 105.268 95.6687 103.925 95.8297 102.028C95.9135 101.041 95.7892 98.835 95.638 96.7729C95.5183 95.1405 95.3783 93.5562 95.2988 92.6571C95.2769 92.4098 95.2596 92.2144 95.2486 92.084C95.1326 90.7114 95.005 89.3385 94.8774 87.9658L94.8771 87.963C94.1881 80.552 93.4997 73.1484 94.6538 65.8391C95.2087 62.3243 95.9383 58.8424 96.6702 55.3496L96.6703 55.3491L96.6706 55.3478C97.0647 53.467 97.4595 51.583 97.828 49.689Z" fill="#333D52"/>
</svg>
