<svg version="1.1" xmlns="http://www.w3.org/2000/svg" xmlns:xlink="http://www.w3.org/1999/xlink" x="0px" y="0px" fill="#fff"
	 viewBox="0 0 409.6 409.6" style="enable-background:new 0 0 409.6 409.6;" xml:space="preserve">
<g>
	<g>
		<circle cx="307.2" cy="102.4" r="34.135"/>
	</g>
</g>
<g>
	<g>
		<path d="M375.465,0H34.135C15.365,0,0,15.35,0,34.135V375.47c0,18.765,15.365,34.13,34.135,34.13h341.33
			c18.77,0,34.135-15.365,34.135-34.135V34.135C409.6,15.35,394.235,0,375.465,0z M34.135,375.465V218.931l68.265-68.265
			l95.334,95.355L68.301,375.465H34.135z M375.465,375.465H116.567l156.498-156.534l102.4,102.421V375.465z M375.465,273.08
			l-102.4-102.41l-51.2,51.21L102.4,102.4l-68.265,68.265V34.135h341.33V273.08z"/>
	</g>
</g>
</svg>
