<?xml version="1.0" encoding="iso-8859-1"?>
<svg fill="#fff" version="1.1" xmlns="http://www.w3.org/2000/svg" xmlns:xlink="http://www.w3.org/1999/xlink" x="0px" y="0px"
	 viewBox="0 0 512 512" style="enable-background:new 0 0 512 512;" xml:space="preserve">
<g>
	<g>
		<path d="M400.486,195.339c-6.688-8.058-14.839-14.81-24.219-19.59c-9.362-4.781-19.983-7.531-31.042-7.519v40.959
			c4.365,0.011,8.432,1.03,12.446,3.049c5.969,3.031,11.749,8.548,15.997,16.149c4.265,7.589,6.928,17.121,6.928,27.613
			c0.024,13.979-4.775,26.273-11.632,34.5c-3.429,4.126-7.308,7.22-11.294,9.251c-4.015,2.03-8.08,3.049-12.446,3.055v40.959
			c11.059,0.011,21.679-2.744,31.042-7.519c14.078-7.193,25.353-18.737,33.141-32.61c7.782-13.897,12.147-30.252,12.154-47.636
			C421.538,232.818,413.838,211.466,400.486,195.339z"/>
	</g>
</g>
<g>
	<g>
		<path d="M467.77,132.969c-13.797-15.975-30.392-29.093-49.076-38.233c-18.666-9.151-39.444-14.284-61.153-14.271v40.959
			c15.283,0.006,29.754,3.552,43.142,10.106c20.058,9.807,37.671,26.53,50.258,48.11c12.598,21.55,20.094,47.84,20.094,76.36
			c0.011,38.022-13.359,72.089-34.254,96.25c-10.439,12.083-22.715,21.679-36.091,28.227c-13.394,6.548-27.859,10.093-43.142,10.106
			v40.959c21.709,0.006,42.487-5.125,61.153-14.271c28.028-13.74,51.322-36.331,67.624-64.248
			c16.302-27.935,25.67-61.317,25.676-97.016C511.976,208.387,495.365,164.93,467.77,132.969z"/>
	</g>
</g>
<g>
	<g>
		<rect y="177.005" width="93.62" height="169.692"/>
	</g>
</g>
<g>
	<g>
		<polygon points="122.879,177.007 122.879,346.696 298.419,475.426 298.419,36.574 		"/>
	</g>
</g>
</svg>
